<svg width="24" height="24" viewBox="0 0 24 24" fill="none" xmlns="http://www.w3.org/2000/svg">
<path fill-rule="evenodd" clip-rule="evenodd" d="M2 3.42857C2 2.63959 2.63959 2 3.42857 2H14.8571C15.6461 2 16.2857 2.63959 16.2857 3.42857C16.2857 4.21755 15.6461 4.85714 14.8571 4.85714H3.42857C2.63959 4.85714 2 4.21755 2 3.42857ZM2 12C2 11.211 2.63959 10.5714 3.42857 10.5714H20.5714C21.3604 10.5714 22 11.211 22 12C22 12.789 21.3604 13.4286 20.5714 13.4286H3.42857C2.63959 13.4286 2 12.789 2 12ZM3.42857 19.1429C2.63959 19.1429 2 19.7824 2 20.5714C2 21.3604 2.63959 22 3.42857 22H9.14286C9.93184 22 10.5714 21.3604 10.5714 20.5714C10.5714 19.7824 9.93184 19.1429 9.14286 19.1429H3.42857Z" fill="#18224C"/>
</svg>
