<svg width="24" height="24" viewBox="0 0 24 24" fill="none" xmlns="http://www.w3.org/2000/svg">
<g opacity="0.2">
<path fill-rule="evenodd" clip-rule="evenodd" d="M20.1348 18.0576L17.8001 15.7128C18.6245 14.3957 19.0628 12.8719 19.0647 11.3162C19.0647 6.99941 15.5804 3.5 11.2824 3.5C6.98428 3.5 3.5 6.99941 3.5 11.3162C3.5 15.6329 6.98428 19.1323 11.2824 19.1323C12.8475 19.1439 14.3775 18.6658 15.6599 17.7645L17.9946 20.1093C18.6138 20.6302 19.5157 20.6302 20.1348 20.1093C20.6217 19.5129 20.6217 18.6541 20.1348 18.0576ZM6.41838 11.3162C6.40551 10.0166 6.91383 8.76656 7.82881 7.84761C8.74378 6.92866 9.98844 6.41813 11.2824 6.43106C12.5763 6.41813 13.8209 6.92866 14.7359 7.84761C15.6509 8.76656 16.1592 10.0166 16.1463 11.3162C16.1592 12.6157 15.6509 13.8658 14.7359 14.7847C13.8209 15.7037 12.5763 16.2142 11.2824 16.2013C9.98844 16.2142 8.74378 15.7037 7.82881 14.7847C6.91383 13.8658 6.40551 12.6157 6.41838 11.3162Z" fill="white"/>
</g>
</svg>
