<svg width="25" height="24" viewBox="0 0 25 24" fill="none" xmlns="http://www.w3.org/2000/svg">
<path fill-rule="evenodd" clip-rule="evenodd" d="M11 18C11 17.1716 11.6716 16.5 12.5 16.5C13.3284 16.5 14 17.1716 14 18C14 18.8284 13.3284 19.5 12.5 19.5C11.6716 19.5 11 18.8284 11 18ZM11 12C11 11.1716 11.6716 10.5 12.5 10.5C13.3284 10.5 14 11.1716 14 12C14 12.8284 13.3284 13.5 12.5 13.5C11.6716 13.5 11 12.8284 11 12ZM11 6C11 5.17157 11.6716 4.5 12.5 4.5C13.3284 4.5 14 5.17157 14 6C14 6.82843 13.3284 7.5 12.5 7.5C11.6716 7.5 11 6.82843 11 6Z" fill="#18224C"/>
</svg>
