<svg width="24" height="24" viewBox="0 0 24 24" fill="none" xmlns="http://www.w3.org/2000/svg">
<path fill-rule="evenodd" clip-rule="evenodd" d="M12 19.5C11.4477 19.5 11 19.0523 11 18.5V17.5C11 16.9477 11.4477 16.5 12 16.5H20C20.5523 16.5 21 16.9477 21 17.5V18.5C21 19.0523 20.5523 19.5 20 19.5H12ZM4 19.5C3.44772 19.5 3 19.0523 3 18.5V17.5C3 16.9477 3.44772 16.5 4 16.5H7C7.55228 16.5 8 16.9477 8 17.5V18.5C8 19.0523 7.55228 19.5 7 19.5H4ZM4 13.5C3.44772 13.5 3 13.0523 3 12.5V11.5C3 10.9477 3.44772 10.5 4 10.5H20C20.5523 10.5 21 10.9477 21 11.5V12.5C21 13.0523 20.5523 13.5 20 13.5H4ZM4 7.5C3.44772 7.5 3 7.05228 3 6.5V5.5C3 4.94772 3.44772 4.5 4 4.5H14C14.5523 4.5 15 4.94772 15 5.5V6.5C15 7.05228 14.5523 7.5 14 7.5H4Z" fill="#DFE4EA"/>
</svg>
