<svg width="24" height="24" viewBox="0 0 24 24" fill="none" xmlns="http://www.w3.org/2000/svg">
<path fill-rule="evenodd" clip-rule="evenodd" d="M9 19.5H15C15.0145 20.3 14.7031 21.0715 14.1373 21.6373C13.5715 22.2031 12.8 22.5145 12 22.5C11.1999 22.5148 10.4282 22.2035 9.86236 21.6376C9.29651 21.0718 8.98519 20.3001 9 19.5ZM3 17.5V15.5L5 13.5V11.5C5.00033 8.40627 7.03429 5.68076 10 4.8V3.5C10.0033 2.3968 10.8968 1.50329 12 1.5C13.1032 1.50329 13.9967 2.3968 14 3.5V4.8C16.9657 5.68076 18.9997 8.40627 19 11.5V13.5L21 15.5V17.5H3Z" fill="#DFE4EA"/>
</svg>
